<svg width="734" height="251" viewBox="0 0 734 251" fill="none" xmlns="http://www.w3.org/2000/svg">
<path d="M204.173 230.083C201.992 230.083 200.207 229.389 198.819 228.001C197.431 226.613 196.737 224.828 196.737 222.646V82.83C196.737 80.8468 197.431 79.1611 198.819 77.7728C200.207 76.1862 201.992 75.3929 204.173 75.3929H238.383C240.564 75.3929 242.349 76.1862 243.737 77.7728C245.125 79.1611 245.819 80.8468 245.819 82.83V94.7293C251.174 88.5813 257.52 83.8216 264.858 80.4501C272.393 77.0787 280.822 75.3929 290.143 75.3929H303.231C305.214 75.3929 306.9 76.0871 308.288 77.4753C309.875 78.8636 310.668 80.6485 310.668 82.83V113.471C310.668 115.454 309.875 117.239 308.288 118.825C306.9 120.213 305.214 120.908 303.231 120.908H274.377C266.246 120.908 259.9 123.188 255.338 127.75C250.976 132.113 248.794 138.36 248.794 146.491V222.646C248.794 224.828 248.001 226.613 246.414 228.001C245.026 229.389 243.241 230.083 241.06 230.083H204.173Z" fill="white"/>
<path d="M339.256 230.083C337.074 230.083 335.289 229.389 333.901 228.001C332.513 226.613 331.819 224.828 331.819 222.646V82.83C331.819 80.6485 332.513 78.8636 333.901 77.4753C335.289 76.0871 337.074 75.3929 339.256 75.3929H374.357C376.34 75.3929 378.026 76.0871 379.414 77.4753C381.001 78.8636 381.794 80.6485 381.794 82.83V222.646C381.794 224.828 381.001 226.613 379.414 228.001C378.026 229.389 376.34 230.083 374.357 230.083H339.256ZM338.958 53.0818C336.777 53.0818 334.992 52.3877 333.604 50.9995C332.215 49.6112 331.521 47.8263 331.521 45.6448V19.1689C331.521 16.9874 332.215 15.2025 333.604 13.8143C334.992 12.2277 336.777 11.4344 338.958 11.4344H374.357C376.539 11.4344 378.323 12.2277 379.712 13.8143C381.298 15.2025 382.091 16.9874 382.091 19.1689V45.6448C382.091 47.8263 381.298 49.6112 379.712 50.9995C378.323 52.3877 376.539 53.0818 374.357 53.0818H338.958Z" fill="white"/>
<path d="M487.74 233.058C473.065 233.058 460.075 230.381 448.771 225.026C437.468 219.671 428.444 211.937 421.702 201.823C415.157 191.51 411.588 179.214 410.993 164.935C410.794 161.762 410.695 157.795 410.695 153.036C410.695 148.078 410.794 144.012 410.993 140.839C411.588 126.361 415.157 114.066 421.702 103.951C428.246 93.6385 437.17 85.8048 448.474 80.4501C459.976 75.0955 473.065 72.4181 487.74 72.4181C501.424 72.4181 513.124 74.4013 522.842 78.3678C532.559 82.1359 540.492 86.8956 546.64 92.6469C552.787 98.3982 557.349 104.348 560.323 110.496C563.496 116.445 565.182 121.701 565.38 126.262C565.579 128.245 564.884 130.03 563.298 131.617C561.711 133.005 559.927 133.699 557.943 133.699H520.165C517.983 133.699 516.298 133.204 515.108 132.212C513.918 131.22 512.827 129.733 511.835 127.75C509.456 121.602 506.382 117.239 502.614 114.661C499.044 112.082 494.384 110.793 488.633 110.793C480.7 110.793 474.552 113.371 470.189 118.528C466.025 123.684 463.744 131.617 463.348 142.326C463.149 150.259 463.149 157.3 463.348 163.447C463.744 174.355 466.025 182.288 470.189 187.246C474.552 192.204 480.7 194.683 488.633 194.683C494.78 194.683 499.639 193.394 503.209 190.816C506.778 188.238 509.654 183.875 511.835 177.727C512.827 175.743 513.918 174.256 515.108 173.264C516.298 172.273 517.983 171.777 520.165 171.777H557.943C559.927 171.777 561.711 172.57 563.298 174.157C564.884 175.545 565.579 177.231 565.38 179.214C565.182 182.585 564.19 186.552 562.406 191.113C560.621 195.476 557.844 200.137 554.076 205.095C550.308 210.053 545.351 214.713 539.203 219.077C533.253 223.241 526.015 226.613 517.487 229.191C508.96 231.769 499.044 233.058 487.74 233.058Z" fill="white"/>
<path d="M638.512 233.058C627.803 233.058 618.185 231.075 609.657 227.109C601.328 222.944 594.684 217.391 589.726 210.45C584.769 203.508 582.29 195.675 582.29 186.949C582.29 172.868 588.041 161.762 599.543 153.631C611.045 145.301 626.315 139.649 645.354 136.674L682.537 131.022V126.857C682.537 119.718 681.05 114.264 678.075 110.496C675.101 106.728 669.647 104.844 661.714 104.844C656.162 104.844 651.6 105.934 648.031 108.116C644.659 110.297 641.982 113.272 639.999 117.04C638.214 119.619 635.735 120.908 632.562 120.908H599.246C597.064 120.908 595.378 120.313 594.189 119.123C592.999 117.734 592.503 116.148 592.701 114.363C592.701 110.793 593.99 106.728 596.568 102.166C599.345 97.4066 603.509 92.746 609.062 88.1847C614.615 83.6233 621.754 79.8552 630.48 76.8804C639.206 73.9055 649.716 72.4181 662.012 72.4181C674.902 72.4181 685.909 73.9055 695.031 76.8804C704.154 79.8552 711.491 84.0199 717.044 89.3746C722.795 94.7293 727.059 101.076 729.835 108.413C732.612 115.553 734 123.486 734 132.212V222.646C734 224.828 733.207 226.613 731.62 228.001C730.232 229.389 728.546 230.083 726.563 230.083H692.057C689.875 230.083 688.09 229.389 686.702 228.001C685.314 226.613 684.62 224.828 684.62 222.646V212.234C682.042 216.003 678.571 219.473 674.208 222.646C669.845 225.819 664.689 228.298 658.74 230.083C652.989 232.067 646.246 233.058 638.512 233.058ZM652.493 199.145C658.244 199.145 663.4 197.955 667.961 195.575C672.721 192.997 676.39 189.13 678.968 183.974C681.744 178.619 683.132 171.975 683.132 164.042V159.878L657.847 164.34C648.527 165.926 641.685 168.405 637.322 171.777C633.157 174.95 631.075 178.718 631.075 183.081C631.075 186.453 632.067 189.328 634.05 191.708C636.033 194.088 638.611 195.972 641.784 197.36C644.957 198.55 648.527 199.145 652.493 199.145Z" fill="white"/>
<path d="M7.43678 230.083C5.25533 230.083 3.4705 229.389 2.0823 228.001C0.6941 226.613 0 224.828 0 222.646V29.2833C0 27.1018 0.6941 25.3169 2.0823 23.9287C3.4705 22.5404 5.25533 21.8463 7.43678 21.8463H98.1655C115.221 21.8463 129.202 24.2261 140.109 28.9858C151.016 33.7455 159.048 40.5876 164.204 49.5121C169.559 58.2382 172.236 68.65 172.236 80.7476C172.236 87.8872 170.848 94.2334 168.071 99.7864C165.493 105.141 162.221 109.603 158.255 113.173C154.487 116.743 150.917 119.321 147.546 120.908C155.082 124.477 161.725 130.328 167.476 138.459C173.426 146.59 176.401 156.11 176.401 167.017C176.401 180.106 173.426 191.411 167.476 200.93C161.725 210.251 153.198 217.49 141.894 222.646C130.788 227.604 117.105 230.083 100.843 230.083H7.43678ZM53.2474 191.411H94.8934C103.421 191.411 109.866 188.932 114.229 183.974C118.592 179.016 120.773 173.364 120.773 167.017C120.773 160.076 118.493 154.226 113.932 149.466C109.569 144.706 103.223 142.326 94.8934 142.326H53.2474V191.411ZM53.2474 104.546H92.2161C100.347 104.546 106.396 102.464 110.362 98.299C114.526 94.1343 116.609 88.7796 116.609 82.235C116.609 75.8888 114.526 70.7324 110.362 66.766C106.396 62.6012 100.347 60.5189 92.2161 60.5189H53.2474V104.546Z" fill="#1D9B48"/>
<path d="M58.3381 32.537C55.7711 32.537 53.6901 30.456 53.6901 27.8889V4.64815C53.6901 2.08105 55.7711 1.72595e-06 58.3381 1.59078e-06L88.55 0C91.117 -1.35163e-07 93.198 2.08105 93.198 4.64815V27.8889C93.198 30.456 91.117 32.537 88.55 32.537L58.3381 32.537Z" fill="#1D9B48"/>
<path d="M58.3381 251C55.7711 251 53.6901 248.919 53.6901 246.352V218.463C53.6901 215.896 55.7711 213.815 58.3381 213.815H88.55C91.117 213.815 93.198 215.896 93.198 218.463V246.352C93.198 248.919 91.117 251 88.55 251H58.3381Z" fill="#1D9B48"/>
</svg>
